General

Format                           : MPEG-4
Format profile                   : Base Media
Codec ID                         : isom
File size                        : 50.7 MiB
Duration                         : 4mn 52s
Overall bit rate                 : 1 455 Kbps
Encoded date                     : UTC 2012-02-19 16:52:59
Tagged date                      : UTC 2012-02-19 16:52:59

Video
ID                               : 1
Format                           : AVC
Format/Info                      : Advanced Video Codec
Format profile                   : High@L3.0
Format settings, CABAC           : Yes
Format settings, ReFrames        : 2 frames
Codec ID                         : avc1
Codec ID/Info                    : Advanced Video Coding
Duration                         : 4mn 52s
Bit rate mode                    : Variable
Bit rate                         : 1 418 Kbps
Maximum bit rate                 : 4 249 Kbps
Width                            : 720 pixels
Height                           : 480 pixels
Display aspect ratio             : 16:9
Original display aspect ratio    : 16:9
Frame rate mode                  : Constant
Frame rate                       : 29.970 fps
Standard                         : NTSC
Color space                      : YUV
Chroma subsampling               : 4:2:0
Bit depth                        : 8 bits
Scan type                        : Progressive
Bits/(Pixel*Frame)               : 0.137
Stream size                      : 48.5 MiB (96%)

Audio
ID                               : 2
Format                           : AAC
Format/Info                      : Advanced Audio Codec
Format profile                   : LC
Codec ID                         : 40
Duration                         : 4mn 52s
Bit rate mode                    : Variable
Bit rate                         : 57.2 Kbps
Maximum bit rate                 : 72.1 Kbps
Channel(s)                       : 2 channels
Channel positions                : Front: L R
Sampling rate                    : 44.1 KHz
Compression mode                 : Lossy
Stream size                      : 1.99 MiB (4%)

